# xmcd
#
# Track frame offsets:
#	150
#	11065
#	27565
#	39945
#	58560
#	69070
#	79265
#	90595
#	101475
#	115640
#	130250
#	141060
#
# Disc length: 2115 seconds
#
# Revision: 0
# Processed by: cddbd v1.4PL0 Copyright (c) Steve Scherf et al.
# Submitted via: dBpowerAMP V4.0
#
DISCID=9108410c
DTITLE=Renato Borghetti - Renato Borghetti
DYEAR=1995
DGENRE=Country
TTITLE0=Milonga Para as Missões
TTITLE1=Lleagda
TTITLE2=Redomona
TTITLE3=Kilometro 11
TTITLE4=Bailinho na Capela
TTITLE5=Carreirada
TTITLE6=O Rancho/Cerca de Pedra
TTITLE7=Merceditas
TTITLE8=O Sem-Vergonha
TTITLE9=El Toro
TTITLE10=Minuano
TTITLE11=Tio Bilia na Outo Baixos
EXTD=Renato Borghetti
EXTT0=
EXTT1=
EXTT2=
EXTT3=
EXTT4=
EXTT5=
EXTT6=
EXTT7=
EXTT8=
EXTT9=
EXTT10=
EXTT11=
PLAYORDER=
